<svg width="50" height="45" viewBox="0 0 50 45" fill="none" xmlns="http://www.w3.org/2000/svg">
<path d="M13 5.74468C11.3425 5.74468 10 6.9911 10 8.52998V33.5977C10 35.1366 11.3425 36.383 13 36.383H40C41.6575 36.383 43 35.1366 43 33.5977V8.52998C43 6.9911 41.6575 5.74468 40 5.74468H13ZM25 11.3153C29.9635 11.3153 34 15.0629 34 19.6712C34 21.4733 33.3756 23.1385 32.3271 24.5047L36.5605 28.4351C37.147 28.9796 37.147 29.8599 36.5605 30.4044C36.268 30.6759 35.884 30.8124 35.5 30.8124C35.116 30.8124 34.732 30.6759 34.4395 30.4044L30.2061 26.4739C28.7346 27.4474 26.941 28.0271 25 28.0271C20.0365 28.0271 16 24.2795 16 19.6712C16 15.0629 20.0365 11.3153 25 11.3153ZM25 14.1006C23.4087 14.1006 21.8826 14.6875 20.7574 15.7322C19.6321 16.7769 19 18.1938 19 19.6712C19 21.1486 19.6321 22.5655 20.7574 23.6102C21.8826 24.6549 23.4087 25.2418 25 25.2418C26.5913 25.2418 28.1174 24.6549 29.2426 23.6102C30.3679 22.5655 31 21.1486 31 19.6712C31 18.1938 30.3679 16.7769 29.2426 15.7322C28.1174 14.6875 26.5913 14.1006 25 14.1006Z" fill="black"/>
</svg>
