<svg width="56" height="42" viewBox="0 0 56 42" fill="none" xmlns="http://www.w3.org/2000/svg">
<path d="M44.3333 19.25H16.66L25.13 11.62C25.5261 11.2626 25.7166 10.8019 25.6597 10.3391C25.6028 9.87638 25.3032 9.44954 24.8267 9.15249C24.3502 8.85545 23.7359 8.71254 23.1189 8.75521C22.5019 8.79787 21.9327 9.02262 21.5367 9.37999L9.87001 19.88C9.79152 19.9635 9.72133 20.0512 9.66001 20.1425C9.66001 20.23 9.66001 20.2825 9.49668 20.37C9.39092 20.5706 9.33554 20.7842 9.33334 21C9.33554 21.2158 9.39092 21.4293 9.49668 21.63C9.49668 21.7175 9.49668 21.77 9.66001 21.8575C9.72133 21.9487 9.79152 22.0365 9.87001 22.12L21.5367 32.62C21.7561 32.8175 22.0308 32.9764 22.3413 33.0853C22.6518 33.1942 22.9906 33.2504 23.3333 33.25C23.8785 33.2508 24.4069 33.1084 24.8267 32.8475C25.0629 32.7006 25.2583 32.5202 25.4014 32.3165C25.5446 32.1129 25.6328 31.8902 25.6609 31.6609C25.6891 31.4317 25.6567 31.2006 25.5656 30.9808C25.4745 30.761 25.3265 30.5568 25.13 30.38L16.66 22.75H44.3333C44.9522 22.75 45.5457 22.5656 45.9833 22.2374C46.4208 21.9092 46.6667 21.4641 46.6667 21C46.6667 20.5359 46.4208 20.0907 45.9833 19.7626C45.5457 19.4344 44.9522 19.25 44.3333 19.25Z" fill="white"/>
</svg>
